<svg version="1.1" id="Layer_1" xmlns="http://www.w3.org/2000/svg" xmlns:xlink="http://www.w3.org/1999/xlink" x="0px" y="0px"
	 width="100%" viewBox="0 0 100 100" enable-background="new 0 0 100 100" xml:space="preserve">
<path fill="#000001" opacity="1.000000" stroke="none" 
	d="
M33.291351,100.650490 
	C23.192968,101.000000 13.385274,100.940689 3.579463,101.050125 
	C1.622089,101.071960 0.924046,100.885857 0.931380,98.592056 
	C1.032879,66.844193 1.038309,35.095764 0.924252,3.347983 
	C0.915520,0.917234 1.805141,0.944743 3.639261,0.961001 
	C13.113106,1.044981 22.588095,1.000000 32.531342,1.000000 
	C34.921352,3.029040 34.996304,5.492270 34.634171,8.516375 
	C34.901245,11.463853 35.081795,13.938586 33.779819,16.699547 
	C31.662683,18.855875 29.312599,18.775267 26.592600,18.707977 
	C25.215401,18.458384 24.219238,18.516586 23.228645,18.639614 
	C21.658785,18.834579 19.739027,18.273413 18.988291,20.381588 
	C18.203539,22.585276 19.803379,23.730352 21.297207,25.279903 
	C21.315422,28.526989 18.198187,30.611336 19.038979,34.205391 
	C18.394831,36.574230 19.006605,38.666809 18.560749,41.087288 
	C18.927362,43.731544 18.957628,45.972248 18.596794,48.643333 
	C18.873604,51.378445 19.040211,53.686398 18.619453,56.425041 
	C18.823528,59.076237 18.967611,61.304451 18.668625,63.923443 
	C18.498396,67.997482 18.421930,71.673042 23.985380,71.934540 
	C24.787802,72.325783 25.180653,72.646767 25.729019,73.357735 
	C26.036724,78.410980 29.663946,79.435715 33.458187,80.880264 
	C34.920761,83.329071 34.956753,85.629890 34.627449,88.416428 
	C34.823601,91.229591 35.078354,93.602188 34.576485,96.425415 
	C34.495579,98.093689 34.418308,99.301628 33.291351,100.650490 
z"/>
<path fill="#000000" opacity="1.000000" stroke="none" 
	d="
M48.683090,1.381936 
	C65.127281,1.000000 81.254921,1.053912 97.381477,0.945865 
	C100.007744,0.928269 101.132362,1.026063 101.112030,4.365472 
	C100.922729,35.455059 100.922379,66.546738 101.112389,97.636314 
	C101.132828,100.980911 100.004608,101.106499 97.378975,101.054970 
	C89.567734,100.901657 81.751564,101.000000 73.468658,101.000000 
	C72.220665,100.079430 71.882835,99.038773 72.291687,97.460228 
	C72.859238,96.552528 73.358551,95.956085 74.006531,95.939095 
	C78.244873,95.827988 79.465515,92.946785 80.290619,89.167480 
	C81.181419,88.129120 82.078468,87.645058 83.024086,87.602608 
	C86.662735,87.439224 87.493759,85.155304 87.430702,81.746552 
	C87.085312,74.944397 87.085312,74.944397 81.172455,74.810471 
	C79.519257,74.293945 78.849327,73.308083 78.478027,71.678200 
	C79.479904,68.778389 79.306534,66.885017 76.000954,66.517113 
	C74.715714,66.374054 73.449005,66.059067 72.271004,64.760666 
	C71.129707,62.356400 71.170639,60.236908 72.058792,57.741142 
	C72.910202,56.369080 73.892365,55.680069 75.022606,55.425453 
	C78.386948,54.667549 79.528625,52.414989 79.437866,48.846970 
	C79.057831,46.227615 79.045883,44.003281 79.401260,41.347328 
	C79.033524,38.580276 79.079102,36.247414 79.495117,33.477585 
	C79.643921,30.688221 79.322266,28.348818 79.388031,25.571171 
	C79.168259,22.889194 79.000717,20.636532 79.340385,17.986664 
	C79.011726,11.107579 79.011726,11.107579 72.888321,10.489943 
	C70.260788,10.481194 68.026909,10.469723 65.356262,10.515994 
	C62.534706,10.673231 60.150345,10.843904 57.299721,10.608791 
	C54.287991,10.953160 51.761570,11.074328 48.983753,9.538272 
	C46.953377,6.796317 46.858879,4.304313 48.683090,1.381936 
z"/>
<path fill="#222327" opacity="1.000000" stroke="none" 
	d="
M48.555836,1.000000 
	C49.003403,3.325930 49.006809,5.651859 49.023567,8.411776 
	C48.178139,10.224452 46.812119,10.436775 44.944153,10.434538 
	C43.140026,10.402988 41.848244,10.023981 40.299255,9.144312 
	C39.328621,8.474847 38.828617,7.880412 38.110588,6.982257 
	C36.415363,3.773690 38.953274,2.891068 40.745674,1.253242 
	C43.370556,1.000000 45.741116,1.000000 48.555836,1.000000 
z"/>
<path fill="#53565D" opacity="1.000000" stroke="none" 
	d="
M40.555836,1.000000 
	C42.234138,3.567854 38.254498,3.482389 38.861412,5.844347 
	C39.382862,6.532806 39.521339,7.045233 39.505081,8.014220 
	C39.421364,8.684895 39.325584,8.944372 38.916382,9.480277 
	C36.971325,10.572443 35.363850,10.584798 33.471897,9.331638 
	C33.105865,6.665659 33.053936,4.279902 33.000999,1.447072 
	C35.370556,1.000000 37.741116,1.000000 40.555836,1.000000 
z"/>
<path fill="#181919" opacity="1.000000" stroke="none" 
	d="
M33.444164,101.000000 
	C33.012398,99.897545 33.024796,98.795090 33.052223,97.279465 
	C34.180691,95.749664 35.575294,95.311218 37.476139,95.179886 
	C39.361168,95.299957 40.797298,95.642342 42.211872,96.958176 
	C42.512917,97.488045 42.590874,97.721657 42.673260,98.323425 
	C42.523327,99.443253 42.063423,99.996323 41.254883,100.744232 
	C38.629444,101.000000 36.258884,101.000000 33.444164,101.000000 
z"/>
<path fill="#171F1E" opacity="1.000000" stroke="none" 
	d="
M73.168488,96.624771 
	C73.009361,98.016144 73.004585,99.101189 72.999908,100.593109 
	C70.629440,101.000000 68.258888,101.000000 65.444168,101.000000 
	C64.661705,100.662079 64.474403,100.251900 64.479828,99.436951 
	C65.059700,97.965904 66.271271,97.609726 67.363815,96.609016 
	C68.051979,96.189667 68.472824,96.003578 69.240166,95.755913 
	C70.480873,95.548622 71.387901,95.396095 72.631035,95.618134 
	C73.075623,95.933647 73.199234,96.126045 73.168488,96.624771 
z"/>
<path fill="#787D80" opacity="1.000000" stroke="none" 
	d="
M57.222366,100.603668 
	C54.629444,101.000000 52.258884,101.000000 49.444164,101.000000 
	C48.607643,100.496948 48.476936,99.932686 48.849586,98.924210 
	C51.350330,97.109665 53.733425,97.437065 56.517601,98.280014 
	C57.316906,99.013214 57.499100,99.571800 57.222366,100.603668 
z"/>
<path fill="#5E6669" opacity="1.000000" stroke="none" 
	d="
M48.734779,98.770172 
	C49.031532,99.553337 49.021446,99.966644 49.005680,100.689972 
	C46.629444,101.000000 44.258884,101.000000 41.444164,101.000000 
	C41.145458,100.308861 41.290916,99.617722 41.732479,98.728661 
	C44.138645,97.355911 46.270248,97.238029 48.734779,98.770172 
z"/>
<path fill="#5C605E" opacity="1.000000" stroke="none" 
	d="
M57.444164,101.000000 
	C56.993298,100.582047 56.986595,100.164093 56.966087,99.432938 
	C59.159397,96.912903 61.645039,97.351830 64.518555,98.722572 
	C64.896217,99.511284 64.945686,99.935181 64.997574,100.679535 
	C62.629444,101.000000 60.258884,101.000000 57.444164,101.000000 
z"/>
<path fill="#F6F8F9" opacity="1.000000" stroke="none" 
	d="
M38.707008,9.267188 
	C38.968929,8.822823 39.032326,8.666084 39.157459,8.263360 
	C39.365635,7.808314 39.512081,7.599254 39.942360,7.647155 
	C41.225430,8.325097 42.224667,8.746078 43.552895,9.243057 
	C45.136089,10.039554 46.317905,10.825023 46.670601,12.740290 
	C46.756222,13.875894 46.148384,15.192653 46.790344,15.319993 
	C47.761272,15.512591 48.095646,14.034133 49.199333,13.274530 
	C51.402969,12.250739 53.356903,12.279490 55.674236,12.791758 
	C56.782097,13.247617 57.356274,13.767868 57.522549,14.637407 
	C57.587116,14.975065 57.719471,15.250049 57.947216,15.457075 
	C57.633644,14.868759 58.242832,15.749556 57.787384,14.937780 
	C57.714146,14.472210 57.711140,14.274307 57.871311,13.812770 
	C58.676590,12.945848 59.481258,12.632909 60.579262,12.172747 
	C61.095581,11.978167 61.305168,11.906889 61.833828,11.741653 
	C63.014469,11.417980 63.883816,11.213984 65.040771,10.757296 
	C67.449539,9.879601 69.609245,9.969827 72.130241,10.081834 
	C72.965797,10.256530 73.401398,10.465676 74.047989,11.018401 
	C74.429901,11.474695 74.558167,11.674239 74.812393,12.201889 
	C75.038376,12.975131 75.106667,13.424865 75.159355,14.203987 
	C75.222412,14.952306 75.276978,15.374949 75.447800,16.104723 
	C75.610710,16.625658 75.677452,16.836817 75.819855,17.377930 
	C75.955429,18.171957 75.969124,18.637732 75.907425,19.468349 
	C75.295067,21.493496 75.643494,23.388674 74.293015,25.199699 
	C73.279327,25.865320 72.508354,25.944950 71.344391,25.618208 
	C69.911079,24.544943 69.681976,23.332392 69.829315,21.681887 
	C70.056183,20.808395 70.485039,20.324270 70.106079,19.469456 
	C69.239899,18.533325 68.561844,18.771709 67.632301,19.485401 
	C64.010605,22.602287 67.823936,23.203770 69.239395,24.868210 
	C70.113304,25.724127 70.730530,26.369308 71.768761,27.059521 
	C73.571709,28.435707 74.363243,30.212883 75.826836,31.911079 
	C78.530975,37.412903 76.405388,42.130806 74.343048,47.196709 
	C73.984612,47.701664 73.819664,47.884701 73.346848,48.263313 
	C71.335632,48.986084 70.221207,48.058846 69.161880,46.855278 
	C69.420982,49.061268 69.255493,51.115578 67.344078,52.987881 
	C66.819397,53.252197 66.587379,53.312408 65.999893,53.305820 
	C64.496605,52.695187 63.851383,51.674080 63.023323,50.359901 
	C61.962204,46.979069 59.933819,45.299324 56.420471,44.953594 
	C54.609047,44.277149 53.657318,42.701328 51.714233,42.712746 
	C50.738846,44.370758 50.497280,46.031364 49.834282,47.904129 
	C48.977276,49.163277 48.051517,49.742840 46.539375,49.835075 
	C45.818771,50.081310 45.620979,48.643940 45.054703,49.975624 
	C44.719952,51.342602 44.288464,52.323502 43.223129,53.304901 
	C42.519379,53.623478 42.086262,53.672264 41.374138,53.514690 
	C40.654827,53.774677 41.030796,51.638744 39.962727,53.286285 
	C37.005184,53.849960 37.008713,51.695557 36.380875,49.705048 
	C36.133900,48.880638 35.232075,48.582523 35.869270,47.876991 
	C35.245136,48.577370 36.114281,48.894138 36.377220,49.730503 
	C36.763039,51.982292 37.766491,53.824436 36.928703,56.181099 
	C36.597366,56.710167 36.428940,56.898148 35.899689,57.202858 
	C34.455475,57.248180 33.720119,56.545116 32.714500,55.617737 
	C32.223049,54.932102 32.009384,54.506378 31.743141,53.731239 
	C31.639505,51.022190 29.890039,50.213402 27.829418,49.229408 
	C27.337257,48.600811 27.176453,48.169380 27.045626,47.359455 
	C27.581238,45.098446 26.376060,43.261780 26.856461,41.009842 
	C27.181652,38.981197 26.760164,37.352867 26.541691,35.373009 
	C26.300501,34.572182 26.465385,33.638935 25.565716,33.967911 
	C25.191359,34.104794 25.413979,34.799995 25.658501,35.546844 
	C25.901114,36.044319 26.010450,36.238949 26.281609,36.732315 
	C26.533550,37.241978 26.623671,37.452900 26.799408,37.999596 
	C26.930077,38.800591 26.939051,39.266666 26.864975,40.085365 
	C26.567465,41.135250 26.133415,41.691246 25.214025,42.274754 
	C23.599775,42.552906 22.578699,41.951878 21.327217,41.018394 
	C19.549553,39.001736 19.025011,36.753880 18.123051,34.314232 
	C17.483664,31.006754 17.457987,28.215393 20.846870,26.294857 
	C21.566843,24.379862 22.638557,23.215538 24.536423,22.394051 
	C25.108593,22.296209 25.342087,22.291990 25.916042,22.365543 
	C28.346756,23.969265 30.180817,24.325640 31.425468,21.033691 
	C32.267685,19.550621 33.212742,18.573910 34.366135,17.324062 
	C38.426003,15.874129 38.702587,12.836246 38.707008,9.267188 
z"/>
<path fill="#46474C" opacity="1.000000" stroke="none" 
	d="
M21.716555,40.231007 
	C22.814526,40.786507 23.545559,41.430931 24.532871,42.231842 
	C26.640511,43.252396 27.400696,44.796040 27.450424,47.146824 
	C27.118212,48.329430 26.801687,49.090439 25.757891,49.855129 
	C22.755825,50.850670 20.160772,51.208870 17.399202,49.187855 
	C17.067078,46.513988 17.057981,44.145367 17.083565,41.331890 
	C18.385065,39.626266 19.839428,39.764835 21.716555,40.231007 
z"/>
<path fill="#313232" opacity="1.000000" stroke="none" 
	d="
M25.230288,22.590111 
	C23.976151,24.085451 23.203829,25.419472 21.356632,25.983521 
	C16.586567,26.137066 16.900919,23.165680 16.968206,20.072014 
	C17.058834,15.905249 20.072857,17.268248 22.258099,17.023947 
	C22.902332,16.951925 23.563719,17.033323 24.672413,17.068066 
	C26.530771,18.706472 26.685715,20.419964 25.230288,22.590111 
z"/>
<path fill="#717578" opacity="1.000000" stroke="none" 
	d="
M38.494438,8.984325 
	C38.997032,9.457964 38.940308,10.047089 39.202457,10.398004 
	C42.610600,14.960191 40.062222,16.793753 35.485992,18.021526 
	C34.322830,18.566092 33.569553,18.561907 32.967682,17.373508 
	C33.007183,14.613122 33.025127,12.267699 33.100433,9.486846 
	C34.799644,9.030641 36.441494,9.009865 38.494438,8.984325 
z"/>
<path fill="#101315" opacity="1.000000" stroke="none" 
	d="
M17.052856,49.342079 
	C19.747843,48.921116 22.419514,48.959625 25.538227,49.016258 
	C27.234772,52.838799 24.427755,55.074409 22.253601,57.891651 
	C20.434330,58.529922 19.046869,58.473106 17.400299,57.387547 
	C17.051682,54.680347 17.040611,52.240948 17.052856,49.342079 
z"/>
<path fill="#1C2139" opacity="1.000000" stroke="none" 
	d="
M21.565727,57.417999 
	C23.117006,54.629185 24.412052,52.158226 25.846184,49.360832 
	C26.264132,48.510983 26.542990,47.987572 26.923470,47.185715 
	C27.185621,46.828510 27.346148,46.749760 27.699055,46.857887 
	C27.925323,47.480469 27.959211,47.916172 28.093781,48.663994 
	C28.463190,49.386353 28.658110,49.828396 28.771347,50.671356 
	C28.274057,53.380684 26.831055,55.375523 26.204990,58.053810 
	C25.161425,61.930676 25.073816,65.419922 26.418629,68.901260 
	C26.945791,70.265945 27.230984,71.720192 26.593328,73.524536 
	C26.216879,73.995308 26.017309,74.141029 25.454372,74.213577 
	C24.849962,73.811920 24.608921,73.483429 24.101488,72.999474 
	C21.059330,70.848732 21.386478,67.596603 20.528191,64.417267 
	C20.204727,61.859425 20.088959,59.709354 21.565727,57.417999 
z"/>
<path fill="#878C8F" opacity="1.000000" stroke="none" 
	d="
M25.050232,74.575668 
	C25.284714,74.092865 25.478426,74.045319 25.971235,73.990189 
	C30.908129,72.639717 33.013180,76.976715 36.421669,78.853226 
	C36.092319,80.678711 35.013054,81.132111 33.277946,81.147675 
	C32.251221,81.070801 31.574871,80.896744 30.953043,81.013374 
	C25.980808,81.945976 24.073551,79.900162 25.050232,74.575668 
z"/>
<path fill="#4F4D4F" opacity="1.000000" stroke="none" 
	d="
M21.474781,64.582939 
	C22.422312,67.341331 23.036419,69.822533 23.742811,72.573868 
	C16.945269,73.178680 16.945269,73.178680 17.097191,65.368851 
	C18.336269,63.795738 19.674095,63.629173 21.474781,64.582939 
z"/>
<path fill="#A3A6AF" opacity="1.000000" stroke="none" 
	d="
M32.551796,16.978958 
	C33.495117,17.315517 34.000992,17.672491 34.826141,18.094576 
	C34.198204,18.974941 34.258656,20.709312 32.311035,20.883381 
	C30.803579,22.998676 29.028372,23.709484 26.340855,23.018959 
	C25.816353,22.981806 25.638020,22.982183 25.192848,22.963009 
	C24.963114,21.269979 25.000217,19.596508 25.082453,17.507378 
	C27.456507,17.060934 29.785431,17.030151 32.551796,16.978958 
z"/>
<path fill="#D0D2D4" opacity="1.000000" stroke="none" 
	d="
M32.946510,81.544731 
	C33.429054,79.829834 34.862900,80.034157 36.020241,79.131935 
	C39.028934,78.240837 38.899105,80.344299 39.228687,82.427589 
	C38.691029,84.801834 38.545212,86.834473 37.466743,89.039017 
	C36.100979,90.074646 34.986187,90.108841 33.502525,89.258453 
	C33.106026,86.644730 33.048370,84.312012 32.946510,81.544731 
z"/>
<path fill="#7B7C82" opacity="1.000000" stroke="none" 
	d="
M21.851528,64.431793 
	C20.513321,64.895897 19.218437,64.931648 17.534454,64.943314 
	C17.101387,62.607471 17.057421,60.295723 17.038103,57.551865 
	C18.385893,57.087334 19.709036,57.054920 21.427071,57.061325 
	C21.846260,59.401241 21.870558,61.702335 21.851528,64.431793 
z"/>
<path fill="#BABDBB" opacity="1.000000" stroke="none" 
	d="
M33.093262,89.412148 
	C34.135246,88.979622 35.106815,88.981804 36.442444,88.969788 
	C38.545357,89.792236 38.245911,91.614632 38.829460,93.428360 
	C38.874519,94.359581 38.762611,94.873650 38.280781,95.661667 
	C36.712536,96.697014 35.367229,97.265495 33.440567,96.915405 
	C33.052456,94.526474 33.037651,92.186668 33.093262,89.412148 
z"/>
<path fill="#AAAFB0" opacity="1.000000" stroke="none" 
	d="
M21.841877,39.873425 
	C20.902128,41.559029 19.300030,40.810711 17.495327,40.923687 
	C17.170099,38.687786 17.221956,36.488537 17.657066,34.137520 
	C21.173113,34.625767 20.382984,37.751167 21.841877,39.873425 
z"/>
<path fill="#252933" opacity="1.000000" stroke="none" 
	d="
M73.054543,56.726715 
	C73.190514,59.337650 73.108101,61.656288 73.039948,64.409210 
	C73.444511,66.318474 73.634857,67.786476 72.698166,69.528397 
	C69.574867,71.052208 69.002426,68.304451 67.398094,66.672653 
	C66.626503,65.647659 65.777641,65.268692 64.767654,64.520447 
	C64.018440,63.737236 63.698086,63.099182 63.449532,62.031883 
	C63.965538,58.699810 65.776573,56.865925 68.955193,55.861973 
	C70.051949,55.681072 70.785378,55.700478 71.864372,55.945705 
	C72.420799,56.181107 72.628471,56.307762 73.054543,56.726715 
z"/>
<path fill="#202328" opacity="1.000000" stroke="none" 
	d="
M88.547104,80.632950 
	C88.899551,81.093880 88.918060,81.257629 88.922821,81.421776 
	C89.141365,88.963120 89.141228,88.963127 81.289742,89.025169 
	C80.370712,89.393570 79.859291,89.487999 78.997513,89.042816 
	C78.263947,85.830086 79.163857,83.224640 80.975525,80.478210 
	C83.635071,79.100716 85.935783,78.973183 88.547104,80.632950 
z"/>
<path fill="#060A0C" opacity="1.000000" stroke="none" 
	d="
M80.641449,48.630623 
	C81.059151,55.834667 81.059151,55.834667 73.661453,57.009163 
	C73.272942,57.019016 73.055183,56.940304 72.939445,56.937408 
	C71.938133,56.056515 71.607689,54.887985 71.058914,53.424988 
	C70.842758,52.589607 70.784264,52.098862 70.780243,51.227867 
	C70.965263,49.812550 71.401253,48.946800 72.673553,48.205597 
	C72.972374,47.979694 73.150970,47.931267 73.187714,48.016186 
	C73.549805,47.689724 73.964371,47.410587 74.847839,47.221130 
	C76.955162,47.494694 78.825104,47.206177 80.641449,48.630623 
z"/>
<path fill="#383A43" opacity="1.000000" stroke="none" 
	d="
M88.921494,80.490982 
	C86.665031,80.968437 84.442612,81.006927 81.804337,81.042046 
	C80.803802,80.854073 80.363098,80.493248 79.906563,79.545914 
	C79.400154,77.655548 79.401527,76.209579 80.441238,74.500565 
	C87.812614,71.364548 89.017303,72.226517 88.921494,80.490982 
z"/>
<path fill="#B7BABC" opacity="1.000000" stroke="none" 
	d="
M57.255280,14.330488 
	C54.613571,14.080915 52.255047,14.045985 49.455509,14.045774 
	C48.002560,14.625252 47.209736,14.207139 46.257465,13.229084 
	C45.314686,11.950785 44.596188,10.947529 43.879791,9.631665 
	C45.314674,9.206773 46.747463,9.094488 48.608585,8.913983 
	C51.403233,8.903510 53.769543,8.961259 56.574005,9.094539 
	C58.246071,10.280228 59.041378,11.542912 58.190834,13.583699 
	C57.936905,13.877754 57.995304,13.972453 58.027813,14.017596 
	C57.886368,14.223536 57.712410,14.384334 57.255280,14.330488 
z"/>
<path fill="#7B7F82" opacity="1.000000" stroke="none" 
	d="
M71.721909,70.259842 
	C72.105721,68.389008 72.274284,66.852074 72.748535,65.079323 
	C74.199821,64.896950 75.344902,64.977585 76.491104,64.999191 
	C81.671387,65.096809 82.050377,65.741966 79.593231,71.075165 
	C77.556877,71.445854 76.940971,73.254318 75.052826,73.800201 
	C74.210854,73.917358 73.725136,73.857506 72.903168,73.553009 
	C71.704514,72.640053 71.268715,71.744301 71.721909,70.259842 
z"/>
<path fill="#696B6C" opacity="1.000000" stroke="none" 
	d="
M73.819557,12.835190 
	C73.607079,12.145675 73.333733,11.882708 72.958160,11.333803 
	C72.578857,10.645518 72.475662,10.199544 72.712906,9.416985 
	C73.224640,9.082351 73.545395,9.014736 73.865868,9.016001 
	C82.519417,9.050144 80.850975,8.243405 80.907455,16.630583 
	C79.269676,18.565870 77.532997,18.686441 75.283264,17.387150 
	C74.897270,17.119465 74.529373,17.010410 74.339943,16.979931 
	C73.731880,16.645565 73.518219,16.240231 73.662628,15.370125 
	C73.775757,14.435485 73.767220,13.848612 73.819557,12.835190 
z"/>
<path fill="#ADB0AF" opacity="1.000000" stroke="none" 
	d="
M74.932121,17.412464 
	C76.600716,17.090631 78.304161,17.061798 80.431854,17.057898 
	C80.897293,19.415688 80.938484,21.748547 80.910690,24.514013 
	C79.305229,26.517246 77.533745,26.674467 75.225510,25.525684 
	C74.211365,23.418985 74.590019,21.549530 74.770630,19.294163 
	C74.980881,18.492121 74.973930,18.098791 74.932121,17.412464 
z"/>
<path fill="#6F747B" opacity="1.000000" stroke="none" 
	d="
M78.801941,88.935608 
	C79.520355,88.945892 79.894424,88.985046 80.550598,89.030876 
	C80.858093,89.200157 80.903328,89.362442 80.906021,89.525421 
	C81.058167,98.719971 81.637115,96.786850 73.461472,96.961517 
	C73.014130,96.931107 72.984413,96.468063 72.959610,96.237396 
	C72.281494,94.056229 74.390976,93.441078 75.048683,91.750092 
	C76.131813,90.401108 77.071297,89.395866 78.801941,88.935608 
z"/>
<path fill="#ECEEF8" opacity="1.000000" stroke="none" 
	d="
M75.042206,73.479469 
	C76.241081,72.043846 75.750145,68.844536 79.018951,70.797699 
	C79.541092,72.013481 79.895638,72.911186 80.490509,73.988045 
	C80.806725,75.495880 80.882629,76.824547 80.912811,78.550018 
	C80.039497,79.998367 79.114204,80.861137 77.268860,80.491104 
	C75.889824,79.499077 75.681572,78.305420 75.517014,76.734337 
	C75.193390,75.537628 74.906479,74.683113 75.042206,73.479469 
z"/>
<path fill="#686A6A" opacity="1.000000" stroke="none" 
	d="
M80.958954,48.430813 
	C79.093506,48.803955 77.249611,48.739140 75.170227,48.359413 
	C74.619728,45.556828 75.936058,43.422222 76.717850,40.807442 
	C78.048996,39.896248 79.116806,39.877476 80.530441,40.664875 
	C80.899315,43.283890 80.939911,45.638371 80.958954,48.430813 
z"/>
<path fill="#C0C4C9" opacity="1.000000" stroke="none" 
	d="
M58.306343,13.916718 
	C57.632999,12.540831 57.329098,11.203906 57.018677,9.518526 
	C59.386940,9.119784 61.761719,9.069498 64.576447,9.092543 
	C65.645699,9.830322 65.844925,10.610421 65.494118,11.892773 
	C64.437988,12.531235 63.531338,12.775158 62.262001,13.031858 
	C61.800922,12.897406 61.702534,12.750174 61.484077,12.839874 
	C60.651752,13.932016 59.688354,14.019060 58.306343,13.916718 
z"/>
<path fill="#A0A0A7" opacity="1.000000" stroke="none" 
	d="
M80.920059,40.495018 
	C79.880386,40.938351 78.902061,40.947292 77.558739,40.916176 
	C76.359459,37.985497 75.186714,35.043739 78.833878,32.667892 
	C79.533226,32.578487 79.817604,32.588741 80.466789,32.820641 
	C80.881523,35.381733 80.931465,37.721184 80.920059,40.495018 
z"/>
<path fill="#7B8086" opacity="1.000000" stroke="none" 
	d="
M80.894730,32.596333 
	C80.831589,33.042286 80.539154,33.066402 80.392471,33.069706 
	C80.019371,32.981560 79.792953,32.890114 79.290527,32.557869 
	C78.370262,29.466547 73.747719,29.140169 74.836494,25.077065 
	C76.727303,24.864532 78.372894,24.920588 80.430099,24.961632 
	C80.880432,27.347874 80.919151,29.749126 80.894730,32.596333 
z"/>
<path fill="#D4D6D9" opacity="1.000000" stroke="none" 
	d="
M65.690781,12.152613 
	C65.234306,11.508214 65.123985,10.729116 65.015030,9.557945 
	C67.355659,9.114955 69.694908,9.064038 72.469086,9.065495 
	C72.923141,9.548161 72.942268,9.978455 72.908661,10.728308 
	C70.525635,10.968484 68.170265,10.712815 65.690781,12.152613 
z"/>
<path fill="#E8ECF4" opacity="1.000000" stroke="none" 
	d="
M40.188026,7.590666 
	C40.059097,7.929985 39.891998,7.955852 39.472046,7.999547 
	C39.155834,7.585838 39.092480,7.154302 39.052124,6.394588 
	C39.871784,6.080864 40.118141,6.583779 40.188026,7.590666 
z"/>
<path fill="#F3F5F7" opacity="1.000000" stroke="none" 
	d="
M38.187744,96.244217 
	C37.979027,95.425110 37.940830,94.891441 37.784302,93.972816 
	C37.343536,90.377647 37.533901,87.161583 37.735481,83.547073 
	C37.838684,81.750710 38.475903,80.181282 36.610107,79.020172 
	C32.243206,78.926201 30.033087,75.588531 26.614689,73.912590 
	C25.468079,70.215630 23.605652,66.731003 23.433689,62.781292 
	C23.354507,60.962616 23.283970,59.226753 24.578552,57.340500 
	C27.460533,56.193592 29.706112,56.906311 32.038544,58.821701 
	C32.994526,59.937721 33.344490,60.891556 33.322094,62.312759 
	C32.478985,63.742714 31.211674,64.210602 30.128731,65.146637 
	C31.230619,64.941063 31.636612,63.983261 32.660873,63.335384 
	C34.841442,62.010651 35.810841,63.742619 37.377411,64.753334 
	C38.008698,65.283867 38.358124,65.602112 38.925995,66.202568 
	C39.235054,66.698837 39.321655,66.917313 39.445717,67.483322 
	C39.201923,70.439262 40.046249,72.962212 40.246838,75.535782 
	C40.093708,72.807541 39.069622,70.126381 39.794121,67.029945 
	C42.338436,65.550461 44.095409,66.967987 46.201706,68.394676 
	C46.763348,69.150307 46.951977,69.642036 47.029976,70.546860 
	C46.993942,73.754829 46.974854,76.587395 47.037670,79.419701 
	C47.011929,76.940826 46.919266,74.461548 47.194366,71.629807 
	C49.991070,67.850418 52.234951,70.612831 54.921631,72.017395 
	C56.054794,72.852226 56.688236,73.652115 57.581032,74.708313 
	C58.458889,76.369690 58.419914,77.809502 58.278431,79.578384 
	C58.217644,80.080093 58.196655,80.260628 58.240204,80.646545 
	C58.304737,80.851929 58.769943,80.731880 58.907753,80.487869 
	C58.774174,77.829323 57.989498,75.344719 59.577595,73.105675 
	C62.221771,69.377678 67.658203,70.138840 70.383980,74.952660 
	C70.578583,76.128098 70.937202,76.846916 71.230957,78.007408 
	C71.408928,81.654579 72.841957,84.745773 72.489487,88.461403 
	C72.708656,90.243164 72.700043,91.612350 72.376236,93.387772 
	C72.014374,94.886444 71.565208,95.882103 70.228592,96.747162 
	C69.441101,96.922623 69.021507,96.904808 68.306763,96.999130 
	C59.696083,99.721809 51.161034,98.065941 42.405975,98.066772 
	C40.841393,97.324150 39.599827,96.926910 38.187744,96.244217 
z"/>
<path fill="#0A1220" opacity="1.000000" stroke="none" 
	d="
M42.076206,97.924194 
	C50.454788,98.085510 58.821297,98.268028 67.578232,97.048790 
	C67.800858,98.529861 66.852287,99.002281 65.200729,99.057266 
	C62.508797,99.065247 60.170849,99.043114 57.392586,99.070351 
	C54.605640,99.082649 52.258999,99.045570 49.476990,99.074265 
	C46.972183,99.066948 44.902748,98.993874 42.430950,98.725769 
	C42.028587,98.530739 42.069458,98.126991 42.076206,97.924194 
z"/>
<path fill="#161D30" opacity="1.000000" stroke="none" 
	d="
M70.184906,96.920631 
	C70.232689,96.210548 70.604675,95.480659 71.028244,94.440796 
	C72.126015,92.678993 73.307205,91.463669 75.646683,91.886711 
	C76.196365,94.052551 74.857170,94.830833 73.136124,95.738113 
	C72.126236,96.304764 71.317673,96.602791 70.184906,96.920631 
z"/>
<path fill="#F2F2F4" opacity="1.000000" stroke="none" 
	d="
M50.254169,41.438114 
	C50.217892,39.894245 50.600956,38.770687 52.090809,39.879826 
	C53.437691,40.882542 54.600456,42.132580 55.917389,43.602539 
	C57.330116,45.147995 57.640762,46.783974 57.971775,48.786491 
	C59.058697,50.989784 59.527794,53.578560 63.032234,52.183979 
	C64.118141,52.055828 64.782944,52.320343 65.739120,52.798149 
	C66.031136,53.008652 65.994408,53.013069 65.993225,52.994610 
	C66.164452,53.152557 66.336861,53.328968 66.690781,53.827896 
	C67.621933,56.522751 65.761276,57.653919 64.257812,59.297314 
	C62.921562,60.262981 61.617466,60.593731 60.359932,61.635006 
	C59.821636,62.145985 59.527008,62.454388 59.030090,63.030807 
	C58.666473,63.460850 58.513260,63.630634 58.102913,64.037132 
	C55.726540,65.331421 53.824100,67.018570 50.850922,66.408142 
	C49.520248,64.518761 47.802586,64.670471 46.167652,64.548386 
	C44.333214,64.411415 42.553352,64.067345 40.881519,62.455490 
	C39.846210,60.327904 40.383911,58.489811 40.629333,56.253922 
	C40.882183,54.696217 41.576061,53.900738 42.799545,52.987713 
	C43.333088,51.707867 43.611031,50.745953 43.915333,49.482605 
	C44.135914,48.997272 44.330139,48.813374 44.873421,48.827293 
	C46.168488,48.804569 47.114498,48.584026 48.305122,48.195496 
	C50.128113,46.209713 50.400169,43.998459 50.254169,41.438114 
z"/>
<path fill="#424559" opacity="1.000000" stroke="none" 
	d="
M32.159790,60.063324 
	C30.017313,58.742962 27.842463,57.993748 25.247326,57.203064 
	C25.195152,54.899891 26.378832,53.130310 27.744976,51.153275 
	C30.162422,49.642315 31.430016,50.899696 32.738178,52.873528 
	C32.939342,53.633396 32.981312,54.031689 33.156017,54.700405 
	C33.384506,55.199158 33.480263,55.427486 33.619370,56.025223 
	C33.482964,57.626709 33.391087,58.888580 32.159790,60.063324 
z"/>
<path fill="#826C80" opacity="1.000000" stroke="none" 
	d="
M57.275009,50.382530 
	C55.546234,48.694679 55.622730,46.725224 55.866085,44.339043 
	C59.999397,43.543930 63.779800,43.485851 63.631653,49.564766 
	C63.569435,50.121872 63.440170,50.300858 63.026287,50.649689 
	C60.961071,51.539650 59.309410,50.593334 57.275009,50.382530 
z"/>
<path fill="#1D263D" opacity="1.000000" stroke="none" 
	d="
M79.714111,31.732832 
	C80.043190,32.157822 80.091988,32.338966 80.193283,32.796562 
	C76.340958,34.106453 77.050705,37.224934 77.145050,40.459732 
	C77.045563,43.183594 77.510452,45.668739 75.121681,47.712799 
	C74.555237,48.061127 74.175758,48.077744 73.510361,48.097733 
	C74.902328,43.098339 76.892563,38.139828 75.200928,32.345955 
	C74.831924,31.492941 74.959595,31.057640 75.672546,30.527903 
	C77.364296,30.094900 78.432770,30.688828 79.714111,31.732832 
z"/>
<path fill="#E5B2BE" opacity="1.000000" stroke="none" 
	d="
M69.300598,26.040878 
	C67.465675,25.067410 66.025246,24.219849 64.758026,23.164341 
	C62.183502,21.019938 62.754349,19.610317 66.252808,18.969757 
	C68.651459,17.378082 70.576767,16.428728 70.461060,20.390097 
	C70.405777,22.282749 71.187363,24.329563 69.300598,26.040878 
z"/>
<path fill="#EEF1F3" opacity="1.000000" stroke="none" 
	d="
M34.129070,45.043320 
	C33.507233,46.708630 32.505840,47.254147 31.271091,46.710045 
	C29.657827,45.999149 30.702337,44.724232 30.986439,43.743874 
	C31.254442,42.819065 31.640347,41.795696 32.300049,41.146740 
	C33.424507,40.040600 32.292141,36.460854 35.067390,37.683121 
	C36.921711,38.499790 36.128784,41.162067 35.292366,43.011150 
	C35.023754,43.604977 34.610840,44.133526 34.129070,45.043320 
z"/>
<path fill="#ACB0C1" opacity="1.000000" stroke="none" 
	d="
M66.268097,54.258125 
	C65.954399,53.840107 65.903404,53.668072 65.922226,53.236092 
	C68.726379,51.043282 67.625099,47.974010 68.257812,45.314930 
	C70.233360,45.234234 70.592384,47.679741 72.639374,47.969761 
	C72.735458,48.798290 72.498550,49.616886 72.164207,50.752045 
	C70.256744,52.270649 70.721603,57.138447 66.268097,54.258125 
z"/>
<path fill="#A8A9BB" opacity="1.000000" stroke="none" 
	d="
M42.718719,52.729912 
	C42.722256,53.512489 42.389366,54.355198 41.999702,55.537376 
	C40.460911,57.270874 39.679653,59.348728 37.331566,60.222897 
	C36.130257,59.534645 35.966312,58.651859 36.325890,57.320530 
	C36.314518,54.627182 36.162243,52.263397 36.007660,49.455597 
	C37.571445,49.879971 37.194344,52.434692 39.643738,52.795982 
	C40.148182,52.642445 40.322132,52.516270 40.757622,52.578510 
	C41.473537,52.774632 41.927917,52.782341 42.718719,52.729912 
z"/>
<path fill="#EDEFEF" opacity="1.000000" stroke="none" 
	d="
M62.113411,32.019279 
	C64.908806,32.130562 65.163887,33.461170 64.337906,35.351360 
	C63.910767,36.328823 63.902390,37.993191 62.334835,37.634354 
	C60.503857,37.215218 60.384243,35.128216 59.735840,33.765820 
	C58.928375,32.069229 60.653263,32.164440 62.113411,32.019279 
z"/>
<path fill="#E5B2C3" opacity="1.000000" stroke="none" 
	d="
M25.066017,37.158161 
	C22.691448,33.308552 23.218443,31.115934 26.322937,31.127710 
	C27.846813,31.133490 28.917904,31.757301 27.950382,33.894096 
	C26.992929,35.408688 28.208485,37.213436 26.305286,38.143059 
	C25.946531,38.066570 25.955307,38.013252 25.974876,38.031876 
	C25.788603,37.771046 25.545753,37.528049 25.066017,37.158161 
z"/>
<path fill="#7B7E90" opacity="1.000000" stroke="none" 
	d="
M79.948463,31.634186 
	C78.789062,31.781265 77.583717,31.585854 76.120148,31.125481 
	C73.782608,29.724762 72.381714,28.262482 73.578171,25.317228 
	C73.958748,23.081503 74.118355,21.184999 74.632904,19.086971 
	C75.012962,20.582062 75.038078,22.278673 75.072456,24.391880 
	C74.869240,28.322432 79.522499,28.218306 79.948463,31.634186 
z"/>
<path fill="#E2E5EB" opacity="1.000000" stroke="none" 
	d="
M26.142447,23.277805 
	C27.401054,21.184259 30.292088,22.764248 31.750835,20.705521 
	C32.588219,23.231018 31.243877,25.292995 29.687796,26.218924 
	C27.776915,27.355972 27.523817,24.420387 26.142447,23.277805 
z"/>
<path fill="#E8ECF4" opacity="1.000000" stroke="none" 
	d="
M45.827888,13.222354 
	C46.838528,13.221933 47.643871,13.489825 48.731857,13.919105 
	C48.987732,15.761902 48.838779,17.516783 47.242409,18.408619 
	C46.260391,18.957235 45.440262,17.968077 44.810108,17.205276 
	C43.517193,15.640217 44.328545,14.505732 45.827888,13.222354 
z"/>
<path fill="#F2F2F4" opacity="1.000000" stroke="none" 
	d="
M56.954662,35.667782 
	C56.332256,36.018436 55.614639,36.201939 55.022442,36.006123 
	C53.713776,35.573402 52.565224,38.703465 51.338512,36.231285 
	C50.471882,34.484776 52.305511,33.372555 53.130619,32.495113 
	C54.891071,30.623001 55.250061,33.421471 56.308659,34.016586 
	C56.649391,34.208130 56.721405,34.877674 56.954662,35.667782 
z"/>
<path fill="#EBEDF1" opacity="1.000000" stroke="none" 
	d="
M73.487808,24.983727 
	C73.672188,26.991444 74.711266,28.574591 75.788635,30.515587 
	C75.627312,31.080755 75.392708,31.300993 75.075928,31.762070 
	C72.743431,31.898426 73.014702,29.208302 71.178177,28.207130 
	C70.423561,27.186630 70.351189,26.364302 70.965706,25.231539 
	C71.930977,24.977310 72.553734,24.983381 73.487808,24.983727 
z"/>
<path fill="#E4E6F2" opacity="1.000000" stroke="none" 
	d="
M28.158642,46.814686 
	C27.891434,47.044769 27.456205,46.988483 27.240650,46.947876 
	C26.488234,45.509541 24.642614,44.858349 24.807104,42.719326 
	C25.123966,41.761177 25.458776,41.134029 25.944260,40.184349 
	C26.786537,39.603924 27.220482,39.970154 27.785767,40.714638 
	C27.543680,42.873497 29.560589,44.603500 28.158642,46.814686 
z"/>
<path fill="#AE969E" opacity="1.000000" stroke="none" 
	d="
M71.209732,24.563206 
	C71.215874,25.711832 71.123512,26.452423 71.005280,27.565792 
	C70.348557,27.478798 69.717705,27.019024 68.957291,26.284163 
	C70.974091,21.396332 70.536041,19.256893 66.971832,18.873188 
	C66.789093,17.181486 68.123169,16.437992 69.581856,16.243687 
	C70.862564,16.073092 70.963211,17.307940 71.084457,18.660830 
	C71.221390,19.174681 71.307114,19.329454 71.284729,19.726604 
	C71.154823,21.364374 71.133034,22.759773 71.209732,24.563206 
z"/>
<path fill="#EBEDF1" opacity="1.000000" stroke="none" 
	d="
M56.946590,14.421747 
	C57.152679,14.093635 57.333256,14.071425 57.787075,14.055978 
	C58.740231,15.372553 61.429352,15.509206 60.323505,17.799555 
	C60.113125,18.235279 59.149349,18.697308 58.708981,18.564455 
	C56.793377,17.986557 56.218510,16.613556 56.946590,14.421747 
z"/>
<path fill="#E3EAF4" opacity="1.000000" stroke="none" 
	d="
M32.919235,52.880829 
	C31.630545,52.243805 30.361107,51.257294 28.371761,50.970917 
	C28.030071,50.541058 28.035908,50.092617 28.118103,49.310150 
	C31.192118,48.267265 32.623707,49.652115 32.919235,52.880829 
z"/>
<path fill="#B09DA4" opacity="1.000000" stroke="none" 
	d="
M28.010849,40.524307 
	C27.509243,40.675968 27.041689,40.403641 26.334534,39.996567 
	C26.001459,39.463383 25.907984,39.064941 25.880520,38.366539 
	C27.280132,37.281918 26.779615,35.727856 27.606430,34.417488 
	C27.900249,36.164963 27.972574,38.132645 28.010849,40.524307 
z"/>
<path fill="#C5C7CA" opacity="1.000000" stroke="none" 
	d="
M50.025856,41.536896 
	C52.102535,43.621017 50.690884,45.682373 48.919518,47.886204 
	C49.030792,45.990898 49.511848,43.954292 50.025856,41.536896 
z"/>
<path fill="#EEF1F3" opacity="1.000000" stroke="none" 
	d="
M37.423225,31.157373 
	C38.466846,31.209843 39.214756,31.342670 39.962669,31.475498 
	C39.670212,32.392532 38.829609,32.660954 38.077908,32.737309 
	C37.038242,32.842911 35.961395,32.671009 37.423225,31.157373 
z"/>
<path fill="#F2F2F4" opacity="1.000000" stroke="none" 
	d="
M41.013561,52.404167 
	C40.845081,52.790695 40.671001,52.814472 40.235573,52.803436 
	C40.087677,51.410824 38.478283,50.194118 39.759602,48.541248 
	C41.631165,49.212940 40.715847,50.877151 41.013561,52.404167 
z"/>
<path fill="#ACB0C1" opacity="1.000000" stroke="none" 
	d="
M62.857204,50.236191 
	C63.138454,49.899437 63.425793,49.832439 63.562248,49.887665 
	C64.402985,50.757721 65.107269,51.572552 65.921341,52.698017 
	C65.275024,53.026958 64.518906,53.045269 63.382195,53.036575 
	C62.324932,52.290783 62.248402,51.467155 62.857204,50.236191 
z"/>
<path fill="#C1C2C6" opacity="1.000000" stroke="none" 
	d="
M41.305527,45.206291 
	C40.980190,43.757484 40.523094,42.009834 42.299267,41.909115 
	C43.393314,41.847076 42.895710,43.444820 43.037422,44.661873 
	C42.611050,45.348675 42.147480,45.479710 41.305527,45.206291 
z"/>
<path fill="#E3EAF4" opacity="1.000000" stroke="none" 
	d="
M36.110458,56.980621 
	C36.608696,57.833199 36.750599,58.675430 36.941338,59.846504 
	C37.058529,60.394615 37.126884,60.613884 36.911842,61.031864 
	C34.927063,60.895401 34.455296,59.659286 34.703674,57.549919 
	C35.278889,56.961399 35.516506,56.965839 36.110458,56.980621 
z"/>
<path fill="#F2F2F4" opacity="1.000000" stroke="none" 
	d="
M57.003281,35.997677 
	C57.844555,36.496502 58.784412,36.949249 58.471313,38.182835 
	C58.439495,38.308197 57.710976,38.422073 57.677872,38.355694 
	C57.404392,37.807354 57.218739,37.215206 56.999733,36.321671 
	C56.992977,36.007019 56.999844,36.000156 57.003281,35.997677 
z"/>
<path fill="#F2F2F4" opacity="1.000000" stroke="none" 
	d="
M40.997753,45.005295 
	C41.436932,45.004501 41.888050,44.999611 42.677551,45.002388 
	C43.015938,45.010052 42.989048,44.998035 42.988720,44.983261 
	C43.372517,45.382484 43.512672,45.867146 43.157944,46.729362 
	C42.464542,47.017982 42.022709,46.999535 41.249588,46.965233 
	C40.624161,46.536205 40.522388,46.076584 40.797188,45.276001 
	C41.007458,44.975197 41.009693,45.001205 40.997753,45.005295 
z"/>
<path fill="#E3EAF4" opacity="1.000000" stroke="none" 
	d="
M32.846550,56.336151 
	C33.026924,55.845833 33.088188,55.673603 33.219101,55.236099 
	C34.121292,55.111073 34.705933,55.538536 34.984745,56.671394 
	C34.917522,57.086597 34.793777,57.216232 34.484390,57.540291 
	C33.576008,57.663918 33.006874,57.369728 32.846550,56.336151 
z"/>
<path fill="#EEF1F3" opacity="1.000000" stroke="none" 
	d="
M42.140350,29.639267 
	C42.580059,29.359514 43.156384,29.250797 43.737717,29.190083 
	C43.814449,29.182070 43.916763,29.419012 44.007225,29.542509 
	C43.430992,29.636765 42.854755,29.731020 42.140350,29.639267 
z"/>
<path fill="#C1C2C6" opacity="1.000000" stroke="none" 
	d="
M40.770462,45.095501 
	C41.003609,45.415043 40.999756,45.854889 40.957104,46.622059 
	C40.173229,46.508446 40.051926,45.929039 40.770462,45.095501 
z"/>
<path fill="#EBEDF1" opacity="1.000000" stroke="none" 
	d="
M73.615707,15.209524 
	C73.864639,15.450108 73.944992,15.877855 74.087921,16.627525 
	C73.448830,16.643509 73.085838,16.184147 73.615707,15.209524 
z"/>
<path fill="#EEF1F3" opacity="1.000000" stroke="none" 
	d="
M36.004955,49.004299 
	C35.775448,48.688484 35.540989,48.368248 35.306526,48.048016 
	C35.419922,47.970352 35.533318,47.892689 35.646713,47.815025 
	C35.758896,48.065834 35.871078,48.316643 35.994301,48.789516 
	C36.005348,49.011581 36.000000,48.999882 36.004955,49.004299 
z"/>
<path fill="#C1C2C6" opacity="1.000000" stroke="none" 
	d="
M43.184460,46.932220 
	C42.922840,46.576801 42.939301,46.117165 42.972076,45.313011 
	C43.909805,45.393684 44.017170,46.026447 43.184460,46.932220 
z"/>
<path fill="#EEF1F3" opacity="1.000000" stroke="none" 
	d="
M41.113983,36.950523 
	C40.993515,36.995140 41.246849,36.592743 41.246849,36.592743 
	C41.246849,36.592743 41.234451,36.905903 41.113983,36.950523 
z"/>
<path fill="#EEF1F3" opacity="1.000000" stroke="none" 
	d="
M44.468964,32.517097 
	C44.450424,32.480640 44.487499,32.553555 44.468964,32.517097 
z"/>
<path fill="#C1C2C6" opacity="1.000000" stroke="none" 
	d="
M45.068146,48.831169 
	C45.011024,49.066246 44.799576,49.107384 44.264908,49.164845 
	C44.125546,48.749321 44.205433,48.131657 45.068146,48.831169 
z"/>
<path fill="#B09DA4" opacity="1.000000" stroke="none" 
	d="
M24.947515,37.277737 
	C25.155272,37.192841 25.449636,37.385723 25.869225,37.814552 
	C25.674339,37.885506 25.354233,37.720509 24.947515,37.277737 
z"/>
<path fill="#EEF1F3" opacity="1.000000" stroke="none" 
	d="
M41.002556,37.003376 
	C41.005112,37.006718 40.758381,37.403126 40.758381,37.403126 
	C40.758381,37.403126 40.770264,37.097893 40.881889,37.046516 
	C40.993515,36.995140 41.000000,37.000034 41.002556,37.003376 
z"/>
<path fill="#EBEDF1" opacity="1.000000" stroke="none" 
	d="
M71.293915,19.868921 
	C71.176620,19.968977 71.080650,19.497477 71.108162,19.258690 
	C71.461853,19.199669 71.553703,19.449324 71.293915,19.868921 
z"/>
<path fill="#EBEDF1" opacity="1.000000" stroke="none" 
	d="
M73.880066,12.401128 
	C73.880432,12.408642 74.185997,12.583315 74.185997,12.583315 
	C74.185997,12.583315 74.118935,12.330849 73.974915,12.356693 
	C73.830887,12.382539 73.879700,12.393614 73.880066,12.401128 
z"/>
<path fill="#EBEDF1" opacity="1.000000" stroke="none" 
	d="
M61.497631,13.065357 
	C61.364010,13.076806 61.454670,12.677240 61.454670,12.677240 
	C61.454670,12.677240 61.805073,12.753726 61.852188,12.899181 
	C61.899307,13.044637 61.631252,13.053907 61.497631,13.065357 
z"/>
<path fill="#5F6066" opacity="1.000000" stroke="none" 
	d="
M37.575676,83.328201 
	C37.879913,86.346512 37.844559,89.546326 37.737587,93.166992 
	C37.417580,92.272705 37.169189,90.957558 36.863655,89.298996 
	C36.949699,87.140289 37.092896,85.324989 37.575676,83.328201 
z"/>
<path fill="#41455A" opacity="1.000000" stroke="none" 
	d="
M69.415352,76.123062 
	C69.005318,72.101265 66.571037,71.657532 63.641487,72.146446 
	C60.745037,72.629822 59.629921,74.274261 60.110081,77.321373 
	C60.384552,79.063217 61.857201,81.004997 59.628178,82.797928 
	C55.927216,80.548927 58.578693,76.677063 56.800865,73.513451 
	C56.496563,71.297089 56.442467,69.511925 57.043087,67.327415 
	C59.886383,63.095329 63.810051,65.291039 67.616615,64.905258 
	C69.150444,66.549690 70.245163,68.117119 71.638519,69.805252 
	C72.222191,70.719559 72.507225,71.513184 72.880074,72.613403 
	C72.837509,74.983711 72.033699,76.412422 69.415352,76.123062 
z"/>
<path fill="#192042" opacity="1.000000" stroke="none" 
	d="
M65.907394,54.321129 
	C69.649773,56.387562 68.983345,50.975792 71.710587,51.059822 
	C72.080284,51.461308 72.093796,51.854015 72.101051,52.541954 
	C72.020905,54.199154 71.849991,55.521755 70.408157,56.663322 
	C67.209198,57.092319 65.781738,59.275974 64.168945,61.722977 
	C62.211067,62.027908 62.324516,60.824753 62.681000,59.199844 
	C63.855133,57.414726 64.832268,56.022419 65.907394,54.321129 
z"/>
<path fill="#484A65" opacity="1.000000" stroke="none" 
	d="
M62.596901,58.966393 
	C63.057106,59.744846 63.236217,60.682655 63.714725,61.823166 
	C64.365166,62.432388 64.716209,62.838913 65.142662,63.513515 
	C64.768288,64.873726 63.793667,64.920067 62.471497,64.993942 
	C61.643772,65.023239 61.174583,65.071434 60.370022,65.253296 
	C59.797447,65.381699 59.564095,65.412643 58.990044,65.349442 
	C58.044712,64.819672 57.687759,64.245338 57.792068,63.161583 
	C57.924911,62.836063 57.942986,62.390255 58.023758,62.182301 
	C58.251682,61.797539 58.398834,61.620728 58.749779,61.165482 
	C60.074314,60.299950 61.195057,59.712852 62.596901,58.966393 
z"/>
<path fill="#68596D" opacity="1.000000" stroke="none" 
	d="
M58.600891,64.743118 
	C59.148415,64.914009 59.335655,64.902824 59.803745,64.874779 
	C60.252598,64.716621 60.420593,64.575325 60.843178,64.225197 
	C62.196648,63.984028 63.295528,63.951687 64.806244,63.850464 
	C66.033714,64.009926 66.849358,64.238258 67.860367,64.724426 
	C65.192604,66.841942 61.666492,65.168175 58.392502,66.904785 
	C57.586292,67.418259 57.083080,67.537170 56.184837,67.227570 
	C55.697529,65.276550 56.643253,64.600510 58.600891,64.743118 
z"/>
<path fill="#7D8085" opacity="1.000000" stroke="none" 
	d="
M70.506638,56.927246 
	C69.875908,55.399040 71.145714,54.450554 71.795868,53.006889 
	C73.442917,53.689625 72.850815,55.029610 72.881577,56.566525 
	C72.161469,56.939884 71.499222,56.945251 70.506638,56.927246 
z"/>
<path fill="#BAC0CF" opacity="1.000000" stroke="none" 
	d="
M76.232475,91.875214 
	C74.566414,92.731850 73.161728,93.399422 71.418427,94.098907 
	C70.993492,92.725388 70.907173,91.319962 70.889595,89.496948 
	C71.745056,88.384270 72.210785,87.425850 73.146561,86.453247 
	C73.948318,85.651237 74.495171,85.042213 74.967636,83.981354 
	C75.694511,82.466843 75.632675,80.950371 77.129318,79.968513 
	C78.414589,79.644981 79.347168,79.336586 80.573425,78.987503 
	C80.973541,79.413193 81.079987,79.879562 81.287468,80.692307 
	C81.083076,83.544174 80.731537,86.035973 79.204224,88.551193 
	C78.262138,89.833206 77.377998,90.759682 76.232475,91.875214 
z"/>
<path fill="#B2B7BE" opacity="1.000000" stroke="none" 
	d="
M69.085251,76.175140 
	C71.100616,76.065872 71.099129,73.844566 72.679733,73.072891 
	C73.465431,72.975433 73.962967,73.030861 74.832977,73.137474 
	C75.760124,73.665565 76.314796,74.142471 76.872665,74.904663 
	C76.097328,76.913322 76.713066,78.751549 76.284637,80.878082 
	C75.301102,82.046028 74.282097,82.197433 72.801941,81.984261 
	C71.025909,81.273293 70.671074,80.025238 70.245850,78.361969 
	C69.704300,77.519142 69.368851,77.007942 69.085251,76.175140 
z"/>
<path fill="#1F233B" opacity="1.000000" stroke="none" 
	d="
M75.599792,81.298660 
	C75.969963,79.184525 76.129501,77.417542 76.582443,75.420258 
	C77.031120,76.514801 77.186378,77.839645 77.411819,79.558929 
	C77.213638,81.351761 76.945274,82.750137 76.387962,84.351616 
	C75.084038,83.775024 75.014671,82.764587 75.599792,81.298660 
z"/>
<path fill="#41455A" opacity="1.000000" stroke="none" 
	d="
M58.844749,64.658447 
	C57.839436,65.096848 56.858566,65.523849 56.010319,66.760887 
	C57.013012,68.967133 57.190655,70.953522 56.021393,73.229813 
	C55.512363,73.452591 55.280781,73.464615 54.706520,73.416916 
	C51.609505,74.693115 51.360039,69.932205 48.401920,71.041130 
	C47.744038,71.371269 47.327976,71.499298 46.588821,71.213959 
	C46.200527,70.618294 46.076130,70.243645 45.918758,69.574516 
	C45.572407,68.760880 45.419289,68.197899 45.562019,67.165359 
	C46.999844,65.187897 48.587372,64.671211 50.919930,65.604385 
	C53.313305,64.903221 55.307564,63.996475 57.613365,62.962898 
	C58.192715,63.354603 58.460518,63.873146 58.844749,64.658447 
z"/>
<path fill="#1A2345" opacity="1.000000" stroke="none" 
	d="
M32.711235,56.289249 
	C33.257492,56.486515 33.549320,56.954964 34.069946,57.579067 
	C34.993183,58.755123 35.687618,59.775524 36.702423,60.807457 
	C37.793568,60.439075 38.528236,60.448647 39.437164,61.350586 
	C40.171143,63.060616 39.853214,64.304771 38.748283,65.741608 
	C38.229656,66.144005 37.997398,66.270561 37.380989,66.297943 
	C35.392529,65.742401 34.801983,64.143402 33.294613,63.106720 
	C32.609177,62.294441 32.253208,61.581871 31.866898,60.561127 
	C32.043308,59.022114 32.250057,57.791275 32.711235,56.289249 
z"/>
<path fill="#48485C" opacity="1.000000" stroke="none" 
	d="
M37.878502,66.169739 
	C38.365067,64.677361 38.699242,63.609989 39.069122,62.205631 
	C39.316109,61.801662 39.527390,61.734684 40.029190,61.829559 
	C41.617416,64.258118 45.047737,63.550045 46.082623,66.476807 
	C46.019699,67.359322 45.985420,67.908417 45.918465,68.868774 
	C44.155945,68.490723 42.426105,67.701393 40.336346,66.910004 
	C39.766068,67.108932 39.555702,67.309929 39.263062,67.082336 
	C39.180786,66.653732 38.942200,66.405106 38.770992,66.385803 
	C38.308559,66.442581 38.017338,66.518661 37.878502,66.169739 
z"/>
<path fill="#C1C2D0" opacity="1.000000" stroke="none" 
	d="
M32.997345,63.013687 
	C32.975445,63.353058 33.064857,63.735088 32.922371,63.984787 
	C31.941153,65.704308 31.758989,68.262497 29.036034,68.264046 
	C28.094065,68.264580 27.048470,67.499382 27.180540,66.374710 
	C27.527122,63.423382 29.850241,63.096748 32.581291,62.958897 
	C32.965145,63.007015 33.001358,62.995106 32.997345,63.013687 
z"/>
<path fill="#48485C" opacity="1.000000" stroke="none" 
	d="
M46.224873,71.436478 
	C46.719833,71.001106 47.114746,71.009270 47.805267,71.034134 
	C48.071568,74.469635 48.052795,77.888596 47.998951,81.307007 
	C47.992558,81.712921 47.794510,82.115822 47.565197,82.964767 
	C44.896740,79.251915 46.357758,75.450470 46.224873,71.436478 
z"/>
<path fill="#192330" opacity="1.000000" stroke="none" 
	d="
M70.036148,78.450417 
	C70.669891,78.807716 71.300041,79.585091 72.050079,80.662926 
	C73.526192,82.466064 73.857651,84.366264 74.252274,86.611069 
	C73.973969,88.363594 72.824013,88.762703 71.318802,89.123688 
	C70.649742,85.676407 70.341156,82.273445 70.036148,78.450417 
z"/>
<path fill="#CFD2DA" opacity="1.000000" stroke="none" 
	d="
M39.136131,67.115540 
	C39.180786,66.653732 39.628990,66.622971 39.802711,66.765457 
	C40.313435,70.163567 40.650436,73.419182 41.084629,77.613678 
	C38.454620,73.959854 39.077450,70.714966 39.136131,67.115540 
z"/>
<path fill="#D2D7E3" opacity="1.000000" stroke="none" 
	d="
M57.609764,72.873062 
	C58.387367,76.041206 57.800514,79.165108 59.127357,82.467728 
	C58.777573,82.902077 58.287903,82.961800 57.428116,83.022850 
	C56.633343,82.509766 56.446568,81.919952 56.759872,80.854340 
	C56.059170,79.104576 56.359161,77.632042 56.811878,75.856888 
	C56.695198,75.101791 56.497074,74.604309 56.531197,73.663956 
	C56.835735,73.087547 57.034611,72.903603 57.609764,72.873062 
z"/>
<path fill="#565B6F" opacity="1.000000" stroke="none" 
	d="
M56.896736,72.886795 
	C57.118774,73.630936 57.066349,74.177597 57.016884,75.136574 
	C54.953617,77.246124 55.193699,75.175369 54.570770,73.766846 
	C54.640778,73.290428 54.917717,73.223671 55.617500,73.095352 
	C56.234322,72.918976 56.428295,72.804153 56.896736,72.886795 
z"/>
<path fill="#44495C" opacity="1.000000" stroke="none" 
	d="
M56.660637,80.115906 
	C57.048622,81.024963 57.074726,81.596130 57.079411,82.595741 
	C55.900749,83.122154 55.210281,82.658623 55.097954,81.443382 
	C55.012810,80.522301 55.215790,79.841393 56.660637,80.115906 
z"/>
<path fill="#CFD2DA" opacity="1.000000" stroke="none" 
	d="
M37.745274,65.796509 
	C38.030888,65.744728 38.318386,66.053085 38.459084,66.209793 
	C38.229290,66.412491 37.858795,66.458488 37.242569,66.351624 
	C37.151112,66.081932 37.305386,65.965111 37.745274,65.796509 
z"/>
<path fill="#6C6171" opacity="1.000000" stroke="none" 
	d="
M46.432709,66.796173 
	C44.529785,64.799301 41.028351,65.704422 40.051201,62.450684 
	C40.133575,61.966114 40.284088,61.817074 40.734909,61.771782 
	C43.281338,62.966381 45.706139,62.876133 48.111694,63.023716 
	C49.405384,63.103085 51.226662,62.685177 51.227921,65.407333 
	C49.816513,66.134018 48.313976,66.458069 46.432709,66.796173 
z"/>
<path fill="#DAC8CF" opacity="1.000000" stroke="none" 
	d="
M62.766449,49.890999 
	C63.103897,50.677204 63.069332,51.454971 63.018181,52.621155 
	C59.176750,57.637505 58.390194,53.850441 57.118652,50.644569 
	C58.637497,48.669468 60.588291,50.129841 62.766449,49.890999 
z"/>
<path fill="#E5E4E5" opacity="1.000000" stroke="none" 
	d="
M41.192459,61.531372 
	C40.860188,61.917053 40.685150,61.958580 40.246586,62.057629 
	C39.983063,62.115154 39.555748,61.948776 39.330292,61.908707 
	C38.609818,61.576283 38.114803,61.283924 37.321289,60.905277 
	C37.022785,60.818989 37.002682,60.496380 36.996429,60.335861 
	C38.820137,59.065010 38.067280,55.398212 41.657654,55.812408 
	C41.948925,57.669727 42.277443,59.498642 41.192459,61.531372 
z"/>
<path fill="#41455A" opacity="1.000000" stroke="none" 
	d="
M58.694569,60.960865 
	C58.874630,61.201370 58.721104,61.473629 58.298759,61.839088 
	C58.214870,61.661125 58.325214,61.347900 58.694569,60.960865 
z"/>
<path fill="#50415D" opacity="1.000000" stroke="none" 
	d="
M57.374786,73.068100 
	C56.982643,73.073677 56.794090,73.063095 56.322945,73.043159 
	C55.853207,71.173027 55.666061,69.312256 55.668110,67.252304 
	C56.342194,67.051537 56.827084,67.049950 57.674858,67.064560 
	C58.023613,68.778343 58.009483,70.475945 57.990700,72.599991 
	C57.986046,73.026451 57.578377,73.051933 57.374786,73.068100 
z"/>
<path fill="#41455A" opacity="1.000000" stroke="none" 
	d="
M60.887291,64.103851 
	C60.949203,64.285881 60.748077,64.507675 60.289490,64.769844 
	C60.211067,64.572754 60.408470,64.350548 60.887291,64.103851 
z"/>
<path fill="#939BA7" opacity="1.000000" stroke="none" 
	d="
M74.625404,86.929169 
	C70.304924,86.644348 72.787910,83.528320 72.110245,81.383682 
	C73.140877,80.969246 74.111778,80.975090 75.446564,80.966217 
	C75.901497,81.912895 75.992554,82.874290 76.091309,84.195198 
	C76.059921,85.496620 76.009491,86.433044 74.625404,86.929169 
z"/>
</svg>